<?xml version="1.0" encoding="UTF-8" standalone="no"?>
<!-- Generator: Adobe Illustrator 19.0.0, SVG Export Plug-In . SVG Version: 6.00 Build 0)  -->

<svg
   xmlns:dc="http://purl.org/dc/elements/1.1/"
   xmlns:cc="http://creativecommons.org/ns#"
   xmlns:rdf="http://www.w3.org/1999/02/22-rdf-syntax-ns#"
   xmlns:svg="http://www.w3.org/2000/svg"
   xmlns="http://www.w3.org/2000/svg"
   xmlns:sodipodi="http://sodipodi.sourceforge.net/DTD/sodipodi-0.dtd"
   xmlns:inkscape="http://www.inkscape.org/namespaces/inkscape"
   version="1.1"
   id="Capa_1"
   x="0px"
   y="0px"
   viewBox="0 0 59.999 59.999"
   style="enable-background:new 0 0 59.999 59.999;"
   xml:space="preserve"
   sodipodi:docname="shieldlogo01.svg"
   inkscape:version="0.92.5 (2060ec1f9f, 2020-04-08)"><metadata
   id="metadata137"><rdf:RDF><cc:Work
       rdf:about=""><dc:format>image/svg+xml</dc:format><dc:type
         rdf:resource="http://purl.org/dc/dcmitype/StillImage" /></cc:Work></rdf:RDF></metadata><defs
   id="defs135" /><sodipodi:namedview
   pagecolor="#ffffff"
   bordercolor="#666666"
   borderopacity="1"
   objecttolerance="10"
   gridtolerance="10"
   guidetolerance="10"
   inkscape:pageopacity="0"
   inkscape:pageshadow="2"
   inkscape:window-width="640"
   inkscape:window-height="504"
   id="namedview133"
   showgrid="false"
   inkscape:zoom="3.9333989"
   inkscape:cx="17.965802"
   inkscape:cy="29.9995"
   inkscape:window-x="446"
   inkscape:window-y="244"
   inkscape:window-maximized="0"
   inkscape:current-layer="Capa_1" />
<g
   id="g100"
   style="fill:#eca400;fill-opacity:1">
	<path
   d="M52,7.999c-14.591,0-21.137-7.528-21.232-7.642C30.578,0.131,30.296,0.001,30.001,0c-0.249,0.012-0.577,0.13-0.769,0.356   C29.168,0.434,22.627,7.999,8,7.999c-0.553,0-1,0.447-1,1v19.085c0,10.433,4.69,20.348,12.546,26.521   c3.167,2.489,6.589,4.29,10.17,5.353c0.093,0.027,0.188,0.041,0.284,0.041s0.191-0.014,0.284-0.041   c3.581-1.063,7.003-2.863,10.17-5.353C48.309,48.432,53,38.517,53,28.084V8.999C53,8.446,52.552,7.999,52,7.999z M51,28.084   c0,9.824-4.404,19.151-11.782,24.949c-2.883,2.266-5.982,3.921-9.218,4.921c-1.804-0.558-3.564-1.326-5.269-2.283   C24.894,55.493,25,55.26,25,54.999c0-0.552-0.448-1-1-1c-0.435,0-0.796,0.282-0.933,0.67c-0.775-0.504-1.537-1.049-2.284-1.636   C20.74,53,20.7,52.964,20.659,52.93c0.107,0.039,0.22,0.069,0.341,0.069c0.552,0,1-0.448,1-1c0-0.552-0.448-1-1-1s-1,0.448-1,1   c0,0.194,0.07,0.365,0.166,0.518c-1.939-1.613-3.661-3.472-5.136-5.525c0.538-0.017,0.97-0.452,0.97-0.994c0-0.552-0.448-1-1-1   c-0.409,0-0.759,0.247-0.914,0.6c-0.437-0.684-0.853-1.383-1.238-2.102C12.935,43.348,13,43.184,13,42.999   c0-0.516-0.396-0.925-0.897-0.979c-1.085-2.307-1.893-4.762-2.416-7.3C9.878,34.537,10,34.284,10,33.999   c0-0.414-0.251-0.768-0.609-0.92c-0.206-1.344-0.327-2.709-0.365-4.085C9.565,28.98,10,28.542,10,27.999c0-0.552-0.448-1-1-1v-4   c0.552,0,1-0.448,1-1c0-0.552-0.448-1-1-1v-4c0.552,0,1-0.448,1-1c0-0.552-0.448-1-1-1v-4c0.552,0,1-0.448,1-1   c0-0.021-0.01-0.038-0.012-0.058c1.46-0.066,2.837-0.2,4.132-0.393C14.049,9.685,14,9.834,14,9.999c0,0.552,0.448,1,1,1   s1-0.448,1-1c0-0.281-0.118-0.533-0.304-0.715c2.867-0.553,5.294-1.372,7.306-2.278C23.005,7.555,23.45,7.999,24,7.999   c0.552,0,1-0.448,1-1c0-0.318-0.157-0.588-0.388-0.772c0.808-0.425,1.529-0.854,2.172-1.272c0.072,0.016,0.14,0.044,0.216,0.044   c0.506,0,0.907-0.382,0.974-0.87C28.859,3.475,29.54,2.883,30,2.442c2.135,2.049,8.758,7.273,21,7.546V28.084z"
   id="path2"
   style="fill:#eca400;fill-opacity:1" />
	<circle
   cx="30"
   cy="6.999"
   r="1"
   id="circle4"
   style="fill:#eca400;fill-opacity:1" />
	<circle
   cx="12"
   cy="12.999"
   r="1"
   id="circle6"
   style="fill:#eca400;fill-opacity:1" />
	<circle
   cx="18"
   cy="12.999"
   r="1"
   id="circle8"
   style="fill:#eca400;fill-opacity:1" />
	<circle
   cx="21"
   cy="9.999"
   r="1"
   id="circle10"
   style="fill:#eca400;fill-opacity:1" />
	<circle
   cx="24"
   cy="12.999"
   r="1"
   id="circle12"
   style="fill:#eca400;fill-opacity:1" />
	<circle
   cx="27"
   cy="9.999"
   r="1"
   id="circle14"
   style="fill:#eca400;fill-opacity:1" />
	<circle
   cx="30"
   cy="12.999"
   r="1"
   id="circle16"
   style="fill:#eca400;fill-opacity:1" />
	<circle
   cx="12"
   cy="18.999"
   r="1"
   id="circle18"
   style="fill:#eca400;fill-opacity:1" />
	<circle
   cx="15"
   cy="15.999"
   r="1"
   id="circle20"
   style="fill:#eca400;fill-opacity:1" />
	<circle
   cx="18"
   cy="18.999"
   r="1"
   id="circle22"
   style="fill:#eca400;fill-opacity:1" />
	<circle
   cx="21"
   cy="15.999"
   r="1"
   id="circle24"
   style="fill:#eca400;fill-opacity:1" />
	<circle
   cx="24"
   cy="18.999"
   r="1"
   id="circle26"
   style="fill:#eca400;fill-opacity:1" />
	<circle
   cx="27"
   cy="15.999"
   r="1"
   id="circle28"
   style="fill:#eca400;fill-opacity:1" />
	<circle
   cx="30"
   cy="18.999"
   r="1"
   id="circle30"
   style="fill:#eca400;fill-opacity:1" />
	<circle
   cx="12"
   cy="24.999"
   r="1"
   id="circle32"
   style="fill:#eca400;fill-opacity:1" />
	<circle
   cx="15"
   cy="21.999"
   r="1"
   id="circle34"
   style="fill:#eca400;fill-opacity:1" />
	<circle
   cx="18"
   cy="24.999"
   r="1"
   id="circle36"
   style="fill:#eca400;fill-opacity:1" />
	<circle
   cx="21"
   cy="21.999"
   r="1"
   id="circle38"
   style="fill:#eca400;fill-opacity:1" />
	<circle
   cx="24"
   cy="24.999"
   r="1"
   id="circle40"
   style="fill:#eca400;fill-opacity:1" />
	<circle
   cx="27"
   cy="21.999"
   r="1"
   id="circle42"
   style="fill:#eca400;fill-opacity:1" />
	<circle
   cx="30"
   cy="24.999"
   r="1"
   id="circle44"
   style="fill:#eca400;fill-opacity:1" />
	<circle
   cx="12"
   cy="30.999"
   r="1"
   id="circle46"
   style="fill:#eca400;fill-opacity:1" />
	<circle
   cx="15"
   cy="27.999"
   r="1"
   id="circle48"
   style="fill:#eca400;fill-opacity:1" />
	<circle
   cx="18"
   cy="30.999"
   r="1"
   id="circle50"
   style="fill:#eca400;fill-opacity:1" />
	<circle
   cx="21"
   cy="27.999"
   r="1"
   id="circle52"
   style="fill:#eca400;fill-opacity:1" />
	<circle
   cx="24"
   cy="30.999"
   r="1"
   id="circle54"
   style="fill:#eca400;fill-opacity:1" />
	<circle
   cx="27"
   cy="27.999"
   r="1"
   id="circle56"
   style="fill:#eca400;fill-opacity:1" />
	<circle
   cx="30"
   cy="30.999"
   r="1"
   id="circle58"
   style="fill:#eca400;fill-opacity:1" />
	<circle
   cx="12"
   cy="36.999"
   r="1"
   id="circle60"
   style="fill:#eca400;fill-opacity:1" />
	<circle
   cx="15"
   cy="33.999"
   r="1"
   id="circle62"
   style="fill:#eca400;fill-opacity:1" />
	<circle
   cx="18"
   cy="36.999"
   r="1"
   id="circle64"
   style="fill:#eca400;fill-opacity:1" />
	<circle
   cx="21"
   cy="33.999"
   r="1"
   id="circle66"
   style="fill:#eca400;fill-opacity:1" />
	<circle
   cx="24"
   cy="36.999"
   r="1"
   id="circle68"
   style="fill:#eca400;fill-opacity:1" />
	<circle
   cx="27"
   cy="33.999"
   r="1"
   id="circle70"
   style="fill:#eca400;fill-opacity:1" />
	<circle
   cx="30"
   cy="36.999"
   r="1"
   id="circle72"
   style="fill:#eca400;fill-opacity:1" />
	<circle
   cx="15"
   cy="39.999"
   r="1"
   id="circle74"
   style="fill:#eca400;fill-opacity:1" />
	<circle
   cx="18"
   cy="42.999"
   r="1"
   id="circle76"
   style="fill:#eca400;fill-opacity:1" />
	<circle
   cx="21"
   cy="39.999"
   r="1"
   id="circle78"
   style="fill:#eca400;fill-opacity:1" />
	<circle
   cx="24"
   cy="42.999"
   r="1"
   id="circle80"
   style="fill:#eca400;fill-opacity:1" />
	<circle
   cx="27"
   cy="39.999"
   r="1"
   id="circle82"
   style="fill:#eca400;fill-opacity:1" />
	<circle
   cx="30"
   cy="42.999"
   r="1"
   id="circle84"
   style="fill:#eca400;fill-opacity:1" />
	<circle
   cx="18"
   cy="48.999"
   r="1"
   id="circle86"
   style="fill:#eca400;fill-opacity:1" />
	<circle
   cx="21"
   cy="45.999"
   r="1"
   id="circle88"
   style="fill:#eca400;fill-opacity:1" />
	<circle
   cx="24"
   cy="48.999"
   r="1"
   id="circle90"
   style="fill:#eca400;fill-opacity:1" />
	<circle
   cx="27"
   cy="45.999"
   r="1"
   id="circle92"
   style="fill:#eca400;fill-opacity:1" />
	<circle
   cx="30"
   cy="48.999"
   r="1"
   id="circle94"
   style="fill:#eca400;fill-opacity:1" />
	<circle
   cx="27"
   cy="51.999"
   r="1"
   id="circle96"
   style="fill:#eca400;fill-opacity:1" />
	<circle
   cx="30"
   cy="54.999"
   r="1"
   id="circle98"
   style="fill:#eca400;fill-opacity:1" />
</g>
<g
   id="g102">
</g>
<g
   id="g104">
</g>
<g
   id="g106">
</g>
<g
   id="g108">
</g>
<g
   id="g110">
</g>
<g
   id="g112">
</g>
<g
   id="g114">
</g>
<g
   id="g116">
</g>
<g
   id="g118">
</g>
<g
   id="g120">
</g>
<g
   id="g122">
</g>
<g
   id="g124">
</g>
<g
   id="g126">
</g>
<g
   id="g128">
</g>
<g
   id="g130">
</g>
</svg>