<svg height="512pt" viewBox="-59 0 511 512" width="512pt" xmlns="http://www.w3.org/2000/svg"><path d="m56.285156 284.203125v165.339844h165.589844v-165.339844zm65.199219 15.003906h35.191406v35.066407h-35.191406zm35.191406 85.136719h-35.191406v-34.941406h35.191406zm-85.386719-85.136719h35.191407v35.066407h-35.191407zm0 50.195313h35.191407v34.941406h-35.191407zm35.191407 85.136718h-35.191407v-35.070312h35.191407zm50.195312 0h-35.191406v-35.070312h35.191406zm50.195313 0h-35.191406v-35.070312h35.191406zm0-50.195312h-35.191406v-34.941406h35.191406zm-35.191406-85.136719h35.191406v35.066407h-35.191406zm0 0"/><path d="m202.148438 60.761719c-34.777344-34.777344-91.359376-34.777344-126.136719 0l10.609375 10.609375c28.925781-28.925782 75.992187-28.925782 104.917968 0zm0 0"/><path d="m94.398438 79.148438 10.609374 10.609374c18.785157-18.789062 49.355469-18.789062 68.144532 0l10.605468-10.609374c-24.632812-24.636719-64.722656-24.636719-89.359374 0zm0 0"/><path d="m154.765625 108.144531 10.609375-10.609375c-14.515625-14.515625-38.074219-14.515625-52.589844 0l10.609375 10.609375c8.652344-8.652343 22.71875-8.652343 31.371094 0zm0 0"/><path d="m.5 512h277.160156v-46.453125h-277.160156zm15.003906-31.453125h247.152344v16.449219h-247.152344zm0 0"/><path d="m137.660156 175.191406c-11.011718 0-19.96875 8.957032-19.96875 19.96875 0 11.007813 8.957032 19.964844 19.96875 19.964844 11.007813 0 19.964844-8.957031 19.964844-19.964844 0-11.011718-8.957031-19.96875-19.964844-19.96875zm0 24.929688c-2.738281 0-4.964844-2.226563-4.964844-4.960938 0-2.738281 2.226563-4.964844 4.964844-4.964844 2.734375 0 4.960938 2.226563 4.960938 4.964844 0 2.734375-2.226563 4.960938-4.960938 4.960938zm0 0"/><path d="m352.042969 153.460938h-214.808594c-22.996094 0-41.699219 18.707031-41.699219 41.699218 0 22.992188 18.703125 41.699219 41.699219 41.699219h214.808594c22.992187 0 41.699219-18.707031 41.699219-41.699219 0-22.992187-18.707032-41.699218-41.699219-41.699218zm0 68.394531h-214.808594c-14.722656 0-26.695313-11.976563-26.695313-26.695313s11.972657-26.695312 26.695313-26.695312h214.808594c14.722656 0 26.695312 11.976562 26.695312 26.695312s-11.972656 26.695313-26.695312 26.695313zm0 0"/><path d="m262.65625 249.363281h15.003906v203.679688h-15.003906zm0 0"/><path d="m15.503906 15.003906h247.152344v125.953125h15.003906v-140.957031h-277.160156v453.042969h15.003906zm0 0"/><path d="m139.078125 252.273438c-31.492187 0-57.113281-25.621094-57.113281-57.113282 0-31.496094 25.621094-57.117187 57.113281-57.117187 11.085937 0 21.835937 3.183593 31.085937 9.203125l8.183594-12.578125c-11.691406-7.605469-25.269531-11.625-39.269531-11.625-39.765625 0-72.117187 32.351562-72.117187 72.117187s32.351562 72.117188 72.117187 72.117188c14 0 27.578125-4.019532 39.265625-11.628906l-8.183594-12.574219c-9.246094 6.019531-19.996094 9.199219-31.082031 9.199219zm0 0"/><path d="m252.652344 399.992188h-15v-95.621094h15zm0-105.621094h-15v-15.003906h15zm0-25.003906h-15v-15.003907h15zm0 0"/><path d="m252.652344 135.957031h-15v-53.441406h15zm0-63.441406h-15v-15.003906h15zm0-25.003906h-15v-15.003907h15zm0 0"/><path d="m352.042969 193.46875h-82.695313v-15.003906h82.695313zm-92.699219 0h-15v-15.003906h15zm-25.003906 0h-15.003906v-15.003906h15.003906zm0 0"/></svg>